# 3ds Max Wavefront OBJ Exporter v0.97b - (c)2007 guruware
# File Created: 25.05.2020 14:29:28

mtllib Waypoint_Mesh.mtl

#
# object Waypoint
#

v  14.6216 0.0000 -113.5390
v  19.6216 0.0000 -108.5390
v  19.6216 -50.0000 -95.1416
v  14.6216 -52.5000 -99.4717
v  14.6216 0.0000 -103.5390
v  14.6216 -47.5000 -90.8114
v  9.6216 0.0000 -108.5390
v  9.6216 -50.0000 -95.1416
v  19.6216 -86.6025 -58.5390
v  14.6216 -90.9327 -61.0390
v  14.6216 -82.2724 -56.0390
v  9.6216 -86.6025 -58.5390
v  19.6216 -100.0000 -8.5390
v  14.6216 -105.0000 -8.5390
v  14.6216 -95.0000 -8.5390
v  9.6216 -100.0000 -8.5390
v  19.6216 -86.6025 41.4610
v  14.6216 -90.9327 43.9610
v  14.6216 -82.2724 38.9610
v  9.6216 -86.6025 41.4610
v  19.6216 -50.0000 78.0635
v  14.6216 -52.5000 82.3937
v  14.6216 -47.5000 73.7334
v  9.6216 -50.0000 78.0635
v  19.6216 0.0000 91.4610
v  14.6216 0.0000 96.4610
v  14.6216 0.0000 86.4610
v  9.6216 0.0000 91.4610
v  19.6216 50.0000 78.0635
v  14.6216 52.5000 82.3937
v  14.6216 47.5000 73.7334
v  9.6216 50.0000 78.0635
v  19.6216 86.6025 41.4610
v  14.6216 90.9327 43.9610
v  14.6216 82.2724 38.9610
v  9.6216 86.6025 41.4610
v  19.6216 100.0000 -8.5390
v  14.6216 105.0000 -8.5390
v  14.6216 95.0000 -8.5390
v  9.6216 100.0000 -8.5390
v  19.6216 86.6026 -58.5390
v  14.6216 90.9327 -61.0390
v  14.6216 82.2724 -56.0390
v  9.6216 86.6026 -58.5390
v  19.6216 50.0000 -95.1415
v  14.6216 52.5000 -99.4717
v  14.6216 47.5000 -90.8114
v  9.6216 50.0000 -95.1415
# 48 vertices

vn -0.0000 0.0000 -1.0000
vn 0.9932 0.0000 -0.1164
vn 0.9932 -0.0582 -0.1008
vn 0.0000 -0.5000 -0.8660
vn -0.0000 -0.0000 1.0000
vn -0.0000 0.5000 0.8660
vn -0.9932 -0.0000 -0.1164
vn -0.9932 -0.0582 -0.1008
vn 0.9932 -0.1008 -0.0582
vn 0.0000 -0.8660 -0.5000
vn -0.0000 0.8660 0.5000
vn -0.9932 -0.1008 -0.0582
vn 0.9932 -0.1164 -0.0000
vn 0.0000 -1.0000 -0.0000
vn -0.0000 1.0000 -0.0000
vn -0.9932 -0.1164 -0.0000
vn 0.9932 -0.1008 0.0582
vn 0.0000 -0.8660 0.5000
vn -0.0000 0.8660 -0.5000
vn -0.9932 -0.1008 0.0582
vn 0.9932 -0.0582 0.1008
vn 0.0000 -0.5000 0.8660
vn -0.0000 0.5000 -0.8660
vn -0.9932 -0.0582 0.1008
vn 0.9932 0.0000 0.1164
vn -0.0000 0.0000 1.0000
vn -0.0000 -0.0000 -1.0000
vn -0.9932 -0.0000 0.1164
vn 0.9932 0.0582 0.1008
vn -0.0000 -0.5000 -0.8660
vn -0.9932 0.0582 0.1008
vn 0.9932 0.1008 0.0582
vn -0.0000 -0.8660 -0.5000
vn -0.9932 0.1008 0.0582
vn 0.9932 0.1164 0.0000
vn -0.0000 1.0000 0.0000
vn -0.9932 0.1164 0.0000
vn 0.9932 0.1008 -0.0582
vn -0.9932 0.1008 -0.0582
vn 0.9932 0.0582 -0.1008
vn -0.0000 -0.5000 0.8660
vn -0.9932 0.0582 -0.1008
# 42 vertex normals

vt 0.0000 0.0000 0.0000
vt 0.2500 0.0000 0.0000
vt 0.2500 0.0833 0.0000
vt 0.0000 0.0833 0.0000
vt 0.5000 0.0000 0.0000
vt 0.5000 0.0833 0.0000
vt 0.7500 0.0000 0.0000
vt 0.7500 0.0833 0.0000
vt 1.0000 0.0000 0.0000
vt 1.0000 0.0833 0.0000
vt 0.2500 0.1667 0.0000
vt 0.0000 0.1667 0.0000
vt 0.5000 0.1667 0.0000
vt 0.7500 0.1667 0.0000
vt 1.0000 0.1667 0.0000
vt 0.2500 0.2500 0.0000
vt 0.0000 0.2500 0.0000
vt 0.5000 0.2500 0.0000
vt 0.7500 0.2500 0.0000
vt 1.0000 0.2500 0.0000
vt 0.2500 0.3333 0.0000
vt 0.0000 0.3333 0.0000
vt 0.5000 0.3333 0.0000
vt 0.7500 0.3333 0.0000
vt 1.0000 0.3333 0.0000
vt 0.2500 0.4167 0.0000
vt 0.0000 0.4167 0.0000
vt 0.5000 0.4167 0.0000
vt 0.7500 0.4167 0.0000
vt 1.0000 0.4167 0.0000
vt 0.2500 0.5000 0.0000
vt 0.0000 0.5000 0.0000
vt 0.5000 0.5000 0.0000
vt 0.7500 0.5000 0.0000
vt 1.0000 0.5000 0.0000
vt 0.2500 0.5833 0.0000
vt 0.0000 0.5833 0.0000
vt 0.5000 0.5833 0.0000
vt 0.7500 0.5833 0.0000
vt 1.0000 0.5833 0.0000
vt 0.2500 0.6667 0.0000
vt 0.0000 0.6667 0.0000
vt 0.5000 0.6667 0.0000
vt 0.7500 0.6667 0.0000
vt 1.0000 0.6667 0.0000
vt 0.2500 0.7500 0.0000
vt 0.0000 0.7500 0.0000
vt 0.5000 0.7500 0.0000
vt 0.7500 0.7500 0.0000
vt 1.0000 0.7500 0.0000
vt 0.2500 0.8333 0.0000
vt 0.0000 0.8333 0.0000
vt 0.5000 0.8333 0.0000
vt 0.7500 0.8333 0.0000
vt 1.0000 0.8333 0.0000
vt 0.2500 0.9167 0.0000
vt 0.0000 0.9167 0.0000
vt 0.5000 0.9167 0.0000
vt 0.7500 0.9167 0.0000
vt 1.0000 0.9167 0.0000
vt 0.2500 1.0000 0.0000
vt 0.0000 1.0000 0.0000
vt 0.5000 1.0000 0.0000
vt 0.7500 1.0000 0.0000
vt 1.0000 1.0000 0.0000
# 65 texture coords

o Waypoint
g Waypoint
usemtl 01___Default
s 1
f 1/1/1 2/2/2 3/3/3 4/4/4 
f 2/2/2 5/5/5 6/6/6 3/3/3 
f 5/5/5 7/7/7 8/8/8 6/6/6 
f 7/7/7 1/9/1 4/10/4 8/8/8 
f 4/4/4 3/3/3 9/11/9 10/12/10 
f 3/3/3 6/6/6 11/13/11 9/11/9 
f 6/6/6 8/8/8 12/14/12 11/13/11 
f 8/8/8 4/10/4 10/15/10 12/14/12 
f 10/12/10 9/11/9 13/16/13 14/17/14 
f 9/11/9 11/13/11 15/18/15 13/16/13 
f 11/13/11 12/14/12 16/19/16 15/18/15 
f 12/14/12 10/15/10 14/20/14 16/19/16 
f 14/17/14 13/16/13 17/21/17 18/22/18 
f 13/16/13 15/18/15 19/23/19 17/21/17 
f 15/18/15 16/19/16 20/24/20 19/23/19 
f 16/19/16 14/20/14 18/25/18 20/24/20 
f 18/22/18 17/21/17 21/26/21 22/27/22 
f 17/21/17 19/23/19 23/28/23 21/26/21 
f 19/23/19 20/24/20 24/29/24 23/28/23 
f 20/24/20 18/25/18 22/30/22 24/29/24 
f 22/27/22 21/26/21 25/31/25 26/32/26 
f 21/26/21 23/28/23 27/33/27 25/31/25 
f 23/28/23 24/29/24 28/34/28 27/33/27 
f 24/29/24 22/30/22 26/35/26 28/34/28 
f 26/32/26 25/31/25 29/36/29 30/37/6 
f 25/31/25 27/33/27 31/38/30 29/36/29 
f 27/33/27 28/34/28 32/39/31 31/38/30 
f 28/34/28 26/35/26 30/40/6 32/39/31 
f 30/37/6 29/36/29 33/41/32 34/42/11 
f 29/36/29 31/38/30 35/43/33 33/41/32 
f 31/38/30 32/39/31 36/44/34 35/43/33 
f 32/39/31 30/40/6 34/45/11 36/44/34 
f 34/42/11 33/41/32 37/46/35 38/47/36 
f 33/41/32 35/43/33 39/48/14 37/46/35 
f 35/43/33 36/44/34 40/49/37 39/48/14 
f 36/44/34 34/45/11 38/50/36 40/49/37 
f 38/47/36 37/46/35 41/51/38 42/52/19 
f 37/46/35 39/48/14 43/53/18 41/51/38 
f 39/48/14 40/49/37 44/54/39 43/53/18 
f 40/49/37 38/50/36 42/55/19 44/54/39 
f 42/52/19 41/51/38 45/56/40 46/57/23 
f 41/51/38 43/53/18 47/58/41 45/56/40 
f 43/53/18 44/54/39 48/59/42 47/58/41 
f 44/54/39 42/55/19 46/60/23 48/59/42 
f 46/57/23 45/56/40 2/61/2 1/62/1 
f 45/56/40 47/58/41 5/63/5 2/61/2 
f 47/58/41 48/59/42 7/64/7 5/63/5 
f 48/59/42 46/60/23 1/65/1 7/64/7 
# 48 polygons

