# 3ds Max Wavefront OBJ Exporter v0.97b - (c)2007 guruware
# File Created: 01.06.2020 13:32:24

mtllib Street_Lamp_Test.mtl

#
# object Lightpost
#

v  1.5451 0.0000 -4.7553
v  4.0451 0.0000 -2.9389
v  5.0000 0.0000 -0.0000
v  4.0451 0.0000 2.9389
v  1.5451 0.0000 4.7553
v  -1.5451 0.0000 4.7553
v  -4.0451 0.0000 2.9389
v  -5.0000 0.0000 0.0000
v  -4.0451 0.0000 -2.9389
v  -1.5451 0.0000 -4.7553
v  4.0451 100.0000 -2.9389
v  5.0000 100.0000 -0.0000
v  1.5451 100.0000 -4.7553
v  -1.5451 100.0000 -4.7553
v  -4.0451 100.0000 -2.9389
v  -5.0000 100.0000 0.0000
v  -4.0451 100.0000 2.9389
v  -1.5451 100.0000 4.7553
v  1.5451 100.0000 4.7553
v  4.0451 100.0000 2.9389
v  0.0000 100.0000 -0.0000
v  4.6353 100.0000 -14.2658
v  15.0000 100.0000 -0.0000
v  -12.1353 100.0000 -8.8168
v  -12.1353 100.0000 8.8168
v  4.6353 100.0000 14.2658
v  9.2705 100.0000 -28.5317
v  30.0000 100.0000 -0.0000
v  -24.2705 100.0000 -17.6336
v  -24.2705 100.0000 17.6336
v  9.2705 100.0000 28.5317
v  11.0644 107.2162 -34.0526
v  35.8050 107.2162 -0.0000
v  -28.9669 107.2162 -21.0457
v  -28.9669 107.2162 21.0457
v  11.0644 107.2162 34.0526
v  8.5033 148.1374 -33.4774
v  -30.7924 148.1374 -18.3932
v  -13.3438 161.3732 -7.0620
v  3.1185 161.3732 -13.3813
v  -28.5895 148.5047 23.6404
v  -12.4210 161.7405 10.5474
v  12.0676 148.5047 34.5344
v  4.6118 161.7405 15.1113
v  34.9922 148.5047 -0.7663
v  14.2157 161.7405 0.3226
v  -0.7638 166.7405 1.1076
v  13.2647 103.2535 -40.8250
v  13.2473 112.4343 -40.8191
v  42.9365 112.4343 0.0149
v  42.9263 103.2535 -0.0008
v  -34.7280 103.2535 -25.2310
v  -34.7276 112.8016 -25.2135
v  -34.7276 103.2535 25.2311
v  -34.7279 112.8016 25.2310
v  13.2644 103.2535 40.8247
v  13.2542 112.8016 40.8394
v  10.3634 144.1747 -40.3621
v  -36.7634 144.1747 -22.2531
v  42.1145 144.5420 -1.1250
v  14.6193 144.5420 41.1825
v  -34.1063 144.5420 28.1262
# 62 vertices

vn 0.2365 -0.6437 -0.7278
vn 0.6191 -0.6437 -0.4498
vn 0.7653 -0.6437 -0.0000
vn 0.6191 -0.6437 0.4498
vn 0.2365 -0.6437 0.7278
vn -0.2365 -0.6437 0.7278
vn -0.6191 -0.6437 0.4498
vn -0.7652 -0.6438 0.0000
vn -0.6191 -0.6438 -0.4498
vn -0.2365 -0.6437 -0.7278
vn 0.6191 0.6437 -0.4498
vn 0.7653 0.6437 -0.0000
vn 0.2365 0.6437 -0.7278
vn -0.2365 0.6437 -0.7278
vn -0.6191 0.6438 -0.4498
vn -0.7652 0.6438 0.0000
vn -0.6191 0.6437 0.4498
vn -0.2365 0.6437 0.7278
vn 0.2365 0.6437 0.7278
vn 0.6191 0.6437 0.4498
vn 0.0000 -1.0000 -0.0000
vn 0.1700 -0.8351 -0.5232
vn 0.5501 -0.8351 -0.0000
vn -0.4451 -0.8351 -0.3234
vn -0.4451 -0.8351 0.3234
vn 0.1700 -0.8351 0.5232
vn -0.0204 -0.9978 0.0628
vn -0.0661 -0.9978 -0.0000
vn 0.0535 -0.9978 0.0388
vn 0.0535 -0.9978 -0.0388
vn -0.0204 -0.9978 -0.0629
vn 0.1257 0.8644 -0.4868
vn -0.4197 0.8640 -0.2781
vn -0.3921 0.8805 -0.2663
vn 0.1132 0.8805 -0.4602
vn -0.3942 0.8640 0.3133
vn -0.3689 0.8843 0.2863
vn 0.1803 0.8642 0.4697
vn 0.1675 0.8841 0.4363
vn 0.5019 0.8644 -0.0309
vn 0.4657 0.8843 -0.0341
vn -0.0049 0.9999 -0.0128
vn 0.2123 -0.7286 -0.6512
vn 0.1548 0.8635 -0.4800
vn 0.8055 0.5926 -0.0008
vn 0.6841 -0.7293 -0.0007
vn -0.5537 -0.7287 -0.4031
vn -0.6475 0.5988 -0.4714
vn -0.5538 -0.7290 0.4023
vn -0.6499 0.5957 0.4720
vn 0.2120 -0.7294 0.6505
vn 0.2483 0.5971 0.7627
vn 0.2542 -0.1948 -0.9473
vn -0.8229 -0.1963 -0.5332
vn 0.1555 0.9878 -0.0094
vn 0.3510 -0.1907 0.9167
vn -0.7626 -0.1889 0.6187
# 57 vertex normals

vt 0.2880 0.3506 0.0000
vt 0.3857 0.4216 0.0000
vt 0.4230 0.5364 0.0000
vt 0.3857 0.6512 0.0000
vt 0.2880 0.7221 0.0000
vt 0.1673 0.7221 0.0000
vt 0.0697 0.6512 0.0000
vt 0.0324 0.5364 0.0000
vt 0.0697 0.4216 0.0000
vt 0.1673 0.3506 0.0000
vt 0.9207 0.0645 0.0000
vt 0.9207 0.0927 0.0000
vt 0.0096 0.0924 0.0000
vt 0.0096 0.0642 0.0000
vt 0.9207 0.1208 0.0000
vt 0.0096 0.1205 0.0000
vt 0.9207 0.1490 0.0000
vt 0.0096 0.1487 0.0000
vt 0.9207 0.1771 0.0000
vt 0.0096 0.1768 0.0000
vt 0.9207 0.2053 0.0000
vt 0.0096 0.2050 0.0000
vt 0.9207 0.2335 0.0000
vt 0.0095 0.2332 0.0000
vt 0.9207 0.2616 0.0000
vt 0.0095 0.2613 0.0000
vt 0.9207 0.2898 0.0000
vt 0.0095 0.2895 0.0000
vt 0.9208 0.0082 0.0000
vt 0.9207 0.0363 0.0000
vt 0.0096 0.0360 0.0000
vt 0.0096 0.0079 0.0000
vt 0.7471 0.2158 0.0000
vt 0.6733 0.2397 0.0000
vt 0.7016 0.1530 0.0000
vt 0.7470 0.2933 0.0000
vt 0.8208 0.2398 0.0000
vt 0.7927 0.1531 0.0000
vt 0.6024 0.2626 0.0000
vt 0.6578 0.0927 0.0000
vt 0.7469 0.3678 0.0000
vt 0.8917 0.2629 0.0000
vt 0.8366 0.0929 0.0000
vt 0.5660 0.2744 0.0000
vt 0.6354 0.0617 0.0000
vt 0.7469 0.4060 0.0000
vt 0.9280 0.2748 0.0000
vt 0.8591 0.0621 0.0000
vt 0.1379 0.0276 0.0000
vt 0.3230 0.0276 0.0000
vt 0.2657 0.1068 0.0000
vt 0.1952 0.1068 0.0000
vt 0.3800 0.2038 0.0000
vt 0.2872 0.1738 0.0000
vt 0.2305 0.3128 0.0000
vt 0.2305 0.2152 0.0000
vt 0.0809 0.2037 0.0000
vt 0.1738 0.1738 0.0000
vt 0.2305 0.1556 0.0000
vt 0.5372 0.2838 0.0000
vt 0.5068 0.2939 0.0000
vt 0.5989 0.0110 0.0000
vt 0.6176 0.0371 0.0000
vt 0.7470 0.4361 0.0000
vt 0.7471 0.4697 0.0000
vt 0.9567 0.2841 0.0000
vt 0.9886 0.2946 0.0000
vt 0.8769 0.0377 0.0000
vt 0.8969 0.0107 0.0000
vt 0.1195 0.0023 0.0000
vt 0.3414 0.0024 0.0000
vt 0.0512 0.2134 0.0000
vt 0.2305 0.3440 0.0000
vt 0.4097 0.2134 0.0000
# 74 texture coords

o Lightpost
g Lightpost
usemtl Light_Post
s 1
f 1/1/1 2/2/2 3/3/3 4/4/4 5/5/5 6/6/6 7/7/7 8/8/8 9/9/9 10/10/10 
s 8
f 3/11/3 2/12/2 11/13/11 12/14/12 
f 2/12/2 1/15/1 13/16/13 11/13/11 
f 1/15/1 10/17/10 14/18/14 13/16/13 
f 10/17/10 9/19/9 15/20/15 14/18/14 
f 9/19/9 8/21/8 16/22/16 15/20/15 
f 8/21/8 7/23/7 17/24/17 16/22/16 
f 7/23/7 6/25/6 18/26/18 17/24/17 
f 6/25/6 5/27/5 19/28/19 18/26/18 
f 5/29/5 4/30/4 20/31/20 19/32/19 
f 4/30/4 3/11/3 12/14/12 20/31/20 
s 1
f 17/9/17 18/10/18 19/1/19 20/2/20 12/3/12 11/4/11 13/5/13 14/6/14 15/7/15 16/8/16 
f 21/33/21 22/34/21 23/35/21 
f 21/33/21 24/36/21 22/34/21 
f 21/33/21 25/37/21 24/36/21 
f 21/33/21 26/38/21 25/37/21 
f 21/33/21 23/35/21 26/38/21 
f 23/35/21 22/34/21 27/39/22 28/40/23 
f 22/34/21 24/36/21 29/41/24 27/39/22 
f 24/36/21 25/37/21 30/42/25 29/41/24 
f 25/37/21 26/38/21 31/43/26 30/42/25 
f 26/38/21 23/35/21 28/40/23 31/43/26 
s 8
f 28/40/23 27/39/22 32/44/27 33/45/28 
f 27/39/22 29/41/24 34/46/29 32/44/27 
f 29/41/24 30/42/25 35/47/30 34/46/29 
f 30/42/25 31/43/26 36/48/31 35/47/30 
f 31/43/26 28/40/23 33/45/28 36/48/31 
s 1
f 37/49/32 38/50/33 39/51/34 40/52/35 
f 38/50/33 41/53/36 42/54/37 39/51/34 
f 41/53/36 43/55/38 44/56/39 42/54/37 
f 43/55/38 45/57/40 46/58/41 44/56/39 
f 45/57/40 37/49/32 40/52/35 46/58/41 
f 47/59/42 40/52/35 39/51/34 
f 47/59/42 39/51/34 42/54/37 
f 47/59/42 42/54/37 44/56/39 
f 47/59/42 44/56/39 46/58/41 
f 47/59/42 46/58/41 40/52/35 
s 8
f 48/60/43 49/61/44 50/62/45 51/63/46 
f 52/64/47 53/65/48 49/61/44 48/60/43 
f 54/66/49 55/67/50 53/65/48 52/64/47 
f 56/68/51 57/69/52 55/67/50 54/66/49 
f 51/63/46 50/62/45 57/69/52 56/68/51 
s off
f 38/50/33 37/49/32 58/70/53 59/71/54 
f 37/49/32 45/57/40 60/72/55 58/70/53 
f 45/57/40 43/55/38 61/73/56 60/72/55 
f 43/55/38 41/53/36 62/74/57 61/73/56 
f 41/53/36 38/50/33 59/71/54 62/74/57 
f 33/45/28 32/44/27 48/60/43 51/63/46 
f 32/44/27 34/46/29 52/64/47 48/60/43 
f 34/46/29 35/47/30 54/66/49 52/64/47 
f 35/47/30 36/48/31 56/68/51 54/66/49 
f 36/48/31 33/45/28 51/63/46 56/68/51 
s 1
f 49/38/44 53/42/48 55/41/50 57/40/52 
s off
f 49/61/44 57/69/52 50/62/45 49/61/44 
f 60/72/55 61/73/56 58/70/53 60/72/55 
f 61/73/56 62/74/57 59/71/54 58/70/53 
# 46 polygons - 10 triangles

#
# object Light_Source
#

v  0.0000 144.2957 -0.0000
v  -0.0000 133.9310 -14.2658
v  -13.5676 133.9310 -4.4084
v  -8.3853 133.9310 11.5413
v  8.3853 133.9310 11.5413
v  13.5676 133.9310 -4.4084
v  0.0000 114.2957 -0.0000
# 7 vertices

vn -0.0000 1.0000 -0.0000
vn -0.0000 0.1267 -0.9919
vn -0.9434 0.1267 -0.3065
vn -0.5830 0.1267 0.8025
vn 0.5830 0.1267 0.8025
vn 0.9434 0.1267 -0.3065
vn -0.0000 -1.0000 0.0000
# 7 vertex normals

vt 0.0000 1.0000 0.0000
vt 0.0000 0.6000 0.0000
vt 0.2000 0.6000 0.0000
vt 0.2000 1.0000 0.0000
vt 0.4000 0.6000 0.0000
vt 0.4000 1.0000 0.0000
vt 0.6000 0.6000 0.0000
vt 0.6000 1.0000 0.0000
vt 0.8000 0.6000 0.0000
vt 0.8000 1.0000 0.0000
vt 1.0000 0.6000 0.0000
vt 0.0000 0.2000 0.0000
vt 0.2000 0.2000 0.0000
vt 0.4000 0.2000 0.0000
vt 0.6000 0.2000 0.0000
vt 0.8000 0.2000 0.0000
# 16 texture coords

o Light_Source
g Light_Source
usemtl Globe
s 1
f 63/75/58 64/76/59 65/77/60 
f 63/78/58 65/77/60 66/79/61 
f 63/80/58 66/79/61 67/81/62 
f 63/82/58 67/81/62 68/83/63 
f 63/84/58 68/83/63 64/85/59 
f 69/86/64 65/77/60 64/76/59 
f 69/87/64 66/79/61 65/77/60 
f 69/88/64 67/81/62 66/79/61 
f 69/89/64 68/83/63 67/81/62 
f 69/90/64 64/85/59 68/83/63 
# 0 polygons - 10 triangles

